<svg id="Layer_1" data-name="Layer 1" xmlns="http://www.w3.org/2000/svg" viewBox="0 0 493.83 493.83"><defs><style>.cls-1{fill:#8126b5;}.cls-2{fill:#fff;}</style></defs><title>logo</title><circle class="cls-1" cx="246.92" cy="246.92" r="246.92"/><circle class="cls-2" cx="246.92" cy="246.92" r="209.1"/><circle class="cls-1" cx="246.92" cy="246.92" r="154.51"/><path class="cls-2" d="M301.76,199.56,246.9,254.43l-54.82-54.82a25.53,25.53,0,0,0-35.92-.1l-.05.05a25.58,25.58,0,0,0,0,36l72.78,72.78.05-.05a25.5,25.5,0,0,0,35.86,0h.05l72.79-72.79a25.48,25.48,0,0,0,0-35.88l0,0A25.51,25.51,0,0,0,301.76,199.56Z"/></svg>